<svg xmlns="http://www.w3.org/2000/svg" width="160" height="160" viewBox="0 0 160 160" fill="none">
  <rect width="160" height="160" rx="36" fill="#09131F"/>
  <rect x="20" y="24" width="120" height="112" rx="24" fill="#0F1E2E" stroke="#1DE9B6" stroke-opacity="0.35"/>
  <rect x="34" y="40" width="92" height="16" rx="8" fill="#00E5FF" fill-opacity="0.16"/>
  <rect x="34" y="68" width="58" height="10" rx="5" fill="#A9F5FF" fill-opacity="0.45"/>
  <rect x="34" y="86" width="72" height="10" rx="5" fill="#A9F5FF" fill-opacity="0.24"/>
  <rect x="34" y="104" width="46" height="10" rx="5" fill="#A9F5FF" fill-opacity="0.24"/>
  <path d="M102 92c0-12.15 9.85-22 22-22s22 9.85 22 22-9.85 22-22 22-22-9.85-22-22Z" fill="#7E57FF" fill-opacity="0.16"/>
  <path d="M124 74a18 18 0 0 1 15.59 9h-6.22a13 13 0 0 0-18.14-3.63 13 13 0 0 0-4.76 17.76 13 13 0 0 0 17.9 4.35l2.58 4.62A18 18 0 1 1 124 74Z" fill="#7E57FF"/>
  <path d="M125 84h10v6h-10v10h-6V90h-10v-6h10V74h6v10Z" fill="#FFE28A"/>
</svg>
